<svg height="512" viewBox="0 0 64 64" width="512" xmlns="http://www.w3.org/2000/svg" xmlns:xlink="http://www.w3.org/1999/xlink"><linearGradient id="linear-gradient" gradientUnits="userSpaceOnUse" x1="-5.897" x2="59.225" y1="53.897" y2="-11.225"><stop offset="0" stop-color="#003f8a"/><stop offset=".518" stop-color="#00d7df"/><stop offset="1" stop-color="#006df0"/></linearGradient><linearGradient id="linear-gradient-2" x1="-6.897" x2="58.225" xlink:href="#linear-gradient" y1="52.897" y2="-12.225"/><linearGradient id="linear-gradient-3" x1="-3.647" x2="61.475" xlink:href="#linear-gradient" y1="56.147" y2="-8.975"/><linearGradient id="linear-gradient-4" x1="11.103" x2="76.225" xlink:href="#linear-gradient" y1="70.897" y2="5.775"/><linearGradient id="linear-gradient-5" x1="10.103" x2="75.225" xlink:href="#linear-gradient" y1="69.897" y2="4.775"/><linearGradient id="linear-gradient-6" x1="13.353" x2="78.475" xlink:href="#linear-gradient" y1="73.147" y2="8.025"/><linearGradient id="linear-gradient-7" x1="-7.397" x2="57.725" xlink:href="#linear-gradient" y1="52.397" y2="-12.725"/><path d="m28 24h-10a1 1 0 0 0 -1 1 2 2 0 0 1 -4 0 1 1 0 0 0 -1-1h-10a1 1 0 0 0 -1 1v6a1 1 0 0 0 1 1h4v14a1 1 0 0 0 1 1h16a1 1 0 0 0 1-1v-14h4a1 1 0 0 0 1-1v-6a1 1 0 0 0 -1-1zm-1 6h-4a1 1 0 0 0 -1 1v14h-14v-14a1 1 0 0 0 -1-1h-4v-4h8.127a4 4 0 0 0 7.746 0h8.127z" fill="url(#linear-gradient)"/><path d="m16 32h-6a1 1 0 0 0 0 2h6a1 1 0 0 0 0-2z" fill="url(#linear-gradient-2)"/><path d="m18 33a1 1 0 0 0 1 1h1a1 1 0 0 0 0-2h-1a1 1 0 0 0 -1 1z" fill="url(#linear-gradient-3)"/><path d="m62 24h-10a1 1 0 0 0 -1 1 2 2 0 0 1 -4 0 1 1 0 0 0 -1-1h-10a1 1 0 0 0 -1 1v6a1 1 0 0 0 1 1h4v14a1 1 0 0 0 1 1h16a1 1 0 0 0 1-1v-14h4a1 1 0 0 0 1-1v-6a1 1 0 0 0 -1-1zm-1 6h-4a1 1 0 0 0 -1 1v14h-14v-14a1 1 0 0 0 -1-1h-4v-4h8.127a4 4 0 0 0 7.746 0h8.127z" fill="url(#linear-gradient-4)"/><path d="m50 32h-6a1 1 0 0 0 0 2h6a1 1 0 0 0 0-2z" fill="url(#linear-gradient-5)"/><path d="m52 33a1 1 0 0 0 1 1h1a1 1 0 0 0 0-2h-1a1 1 0 0 0 -1 1z" fill="url(#linear-gradient-6)"/><path d="m31.316 13.051a1 1 0 0 0 -1.264.633l-1.052 3.154-1.052-3.154a1 1 0 1 0 -1.9.632l2 6a1 1 0 0 0 1.9 0l2-6a1 1 0 0 0 -.632-1.265z" fill="url(#linear-gradient-7)"/><path d="m38 20v-3a1 1 0 0 0 -1-1h-2v-1h2a1 1 0 0 0 0-2h-3a1 1 0 0 0 -1 1v3a1 1 0 0 0 1 1h2v1h-2a1 1 0 0 0 0 2h3a1 1 0 0 0 1-1z" fill="url(#linear-gradient-3)"/></svg>